HIERARCHY
ROOT Hips
{
 OFFSET 0.000000 0.000000 0.000000
 CHANNELS 6 Xposition Yposition Zposition Yrotation Xrotation Zrotation
 JOINT Chest
 {
  OFFSET 0.000000 9.581000 -0.001100
  CHANNELS 3 Yrotation Xrotation Zrotation
  JOINT Chest2
  {
   OFFSET 0.000000 9.561100 0.002200
   CHANNELS 3 Yrotation Xrotation Zrotation
   JOINT Chest3
   {
    OFFSET 0.000000 9.521100 0.000000
    CHANNELS 3 Yrotation Xrotation Zrotation
    JOINT Chest4
    {
     OFFSET 0.000000 9.511400 0.000000
     CHANNELS 3 Yrotation Xrotation Zrotation
     JOINT Neck
     {
      OFFSET 0.000000 14.375100 0.000000
      CHANNELS 3 Yrotation Xrotation Zrotation
      JOINT Head
      {
       OFFSET 0.000000 8.901200 0.004600
       CHANNELS 3 Yrotation Xrotation Zrotation
       End Site
       {
        OFFSET 0.000000 16.962200 0.002400
       }
      }
     }
     JOINT RightCollar
     {
      OFFSET -2.920100 9.518800 0.000000
      CHANNELS 3 Yrotation Xrotation Zrotation
      JOINT RightShoulder
      {
       OFFSET -13.664500 0.000000 0.000000
       CHANNELS 3 Yrotation Xrotation Zrotation
       JOINT RightElbow
       {
        OFFSET 0.000000 -29.999200 0.000000
        CHANNELS 3 Yrotation Xrotation Zrotation
        JOINT RightWrist
        {
         OFFSET 0.000000 -24.253600 0.000000
         CHANNELS 3 Yrotation Xrotation Zrotation
         End Site
         {
          OFFSET 0.000000 -17.918900 0.000000
         }
        }
       }
      }
     }
     JOINT LeftCollar
     {
      OFFSET 2.920100 9.518800 0.000000
      CHANNELS 3 Yrotation Xrotation Zrotation
      JOINT LeftShoulder
      {
       OFFSET 13.664500 0.000000 0.000000
       CHANNELS 3 Yrotation Xrotation Zrotation
       JOINT LeftElbow
       {
        OFFSET 0.000000 -29.999200 0.000000
        CHANNELS 3 Yrotation Xrotation Zrotation
        JOINT LeftWrist
        {
         OFFSET 0.000000 -24.253600 0.000000
         CHANNELS 3 Yrotation Xrotation Zrotation
         End Site
         {
          OFFSET 0.000000 -17.918900 0.000000
         }
        }
       }
      }
     }
    }
   }
  }
 }
 JOINT RightHip
 {
  OFFSET -7.797300 0.005300 0.000500
  CHANNELS 3 Yrotation Xrotation Zrotation
  JOINT RightKnee
  {
   OFFSET 0.000000 -40.663400 -0.000500
   CHANNELS 3 Yrotation Xrotation Zrotation
   JOINT RightAnkle
   {
    OFFSET 0.000000 -39.523700 -0.000900
    CHANNELS 3 Yrotation Xrotation Zrotation
    JOINT RightToe
    {
     OFFSET 0.000000 -6.418000 14.485300
     CHANNELS 3 Yrotation Xrotation Zrotation
     End Site
     {
      OFFSET 0.000000 -1.465200 6.326400
     }
    }
   }
  }
 }
 JOINT LeftHip
 {
  OFFSET 7.797300 0.005300 0.000500
  CHANNELS 3 Yrotation Xrotation Zrotation
  JOINT LeftKnee
  {
   OFFSET 0.000000 -40.663400 -0.000500
   CHANNELS 3 Yrotation Xrotation Zrotation
   JOINT LeftAnkle
   {
    OFFSET 0.000000 -39.523700 -0.000900
    CHANNELS 3 Yrotation Xrotation Zrotation
    JOINT LeftToe
    {
     OFFSET 0.000000 -6.418000 14.485300
     CHANNELS 3 Yrotation Xrotation Zrotation
     End Site
     {
      OFFSET 0.000000 -1.465200 6.326400
     }
    }
   }
  }
 }
}
MOTION
Frames: 11
Frame Time: 0.008333
-18.378520 126.882344 19.425500 -173.603261 -46.476834 -4.917557 -0.098781 27.533803 1.515269 -0.070536 4.844655 0.263320 -0.091312 7.652117 0.424061 -0.138373 22.393517 1.225215 -0.909322 18.737465 -6.676202 0.555347 -5.685021 -7.014573 0.204306 1.951126 1.940406 3.857121 -11.727747 -9.395311 -75.380488 -39.890517 136.033717 -10.915988 -0.402972 -3.376039 -6.385011 0.391432 3.169865 5.660790 -13.471564 2.550165 72.615911 -43.172012 -110.284089 13.127653 -26.594349 3.682611 -20.510003 -17.486157 1.170004 -5.576301 67.275123 9.007037 12.434351 -7.195036 -5.440838 0.005203 -0.012554 0.002305 14.728615 -7.973691 0.817596 -176.645971 84.701269 178.437777 -11.965947 -14.192668 4.599591 0.000391 0.000627 0.000173
-18.377337 126.880655 19.426566 -173.622354 -46.458905 -4.908416 -0.075638 27.515406 1.530842 -0.070209 4.843321 0.264658 -0.093055 7.649342 0.428613 -0.136449 22.391675 1.232143 -0.914876 18.714262 -6.673771 0.553219 -5.752791 -6.993059 0.195116 1.946598 1.935216 3.853934 -11.718973 -9.400670 -75.499734 -40.011349 136.103394 -10.799014 -0.270192 -3.236410 -6.396527 0.375595 3.158928 5.554714 -13.486370 2.600018 73.019932 -43.669054 -110.647599 12.860811 -26.305031 3.412616 -20.491121 -17.472299 1.171847 -5.560385 67.277885 9.003023 12.534412 -7.376768 -5.357835 0.017825 -0.029711 0.007894 14.738007 -7.995568 0.822353 -176.666155 84.695089 178.406862 -11.969013 -14.194736 4.601631 -0.001058 0.000786 -0.000469
-18.378828 126.882292 19.424524 -173.601243 -46.467357 -4.915061 -0.086959 27.522778 1.533400 -0.069805 4.842913 0.266105 -0.098640 7.649879 0.424544 -0.133566 22.388946 1.240435 -0.922376 18.709340 -6.680308 0.556539 -5.840847 -6.966760 0.191522 1.940135 1.931082 3.850801 -11.719258 -9.395968 -75.600636 -40.127490 136.153123 -10.654844 -0.137367 -3.097971 -6.400301 0.337998 3.149540 5.440499 -13.478866 2.650017 73.417346 -44.154376 -111.016794 12.611537 -26.001318 3.101711 -20.484404 -17.437800 1.161389 -5.617827 67.305022 8.894941 12.685212 -7.630496 -5.227368 0.011270 -0.018485 0.004992 14.727254 -7.983703 0.815039 -176.679807 84.692179 178.388072 -11.958079 -14.196212 4.595915 -0.001167 0.000312 -0.000517
-18.380237 126.882843 19.423576 -173.585111 -46.467019 -4.918503 -0.100258 27.522469 1.533144 -0.069975 4.841486 0.267442 -0.100559 7.649936 0.421048 -0.135459 22.389344 1.239144 -0.912673 18.670771 -6.662554 0.556785 -5.880039 -6.960856 0.198620 1.897246 1.952487 3.849497 -11.685295 -9.409577 -75.713315 -40.252121 136.206886 -10.510927 -0.011114 -2.961339 -6.399465 0.298837 3.148811 5.322596 -13.472657 2.698234 73.808165 -44.626037 -111.388806 12.371093 -25.685199 2.770666 -20.472179 -17.401384 1.152187 -5.735225 67.331220 8.729347 12.839930 -7.904685 -5.073213 0.006773 -0.013631 0.003000 14.720246 -7.981662 0.807856 -176.692082 84.690201 178.373347 -11.957063 -14.196555 4.594600 -0.000713 0.000454 -0.000316
-18.381927 126.882635 19.423452 -173.572972 -46.460563 -4.917625 -0.094685 27.518723 1.542710 -0.081510 4.837487 0.261450 -0.100285 7.646312 0.422753 -0.134213 22.384705 1.244792 -0.893543 18.594528 -6.635467 0.547602 -5.875717 -6.961243 0.195085 1.887100 1.955857 3.847254 -11.674845 -9.415023 -75.835292 -40.380300 136.269781 -10.366702 0.111270 -2.831112 -6.407214 0.265650 3.138464 5.199109 -13.469741 2.753023 74.185003 -45.077426 -111.760389 12.132700 -25.360288 2.444231 -20.469462 -17.376302 1.137232 -5.904716 67.359071 8.527240 12.998503 -8.168307 -4.908714 0.002153 -0.015382 0.000954 14.717488 -7.985768 0.800240 -176.706659 84.687952 178.355852 -11.962448 -14.193658 4.597302 -0.000213 0.000242 -0.000094
-18.383371 126.882614 19.423297 -173.560243 -46.455280 -4.919580 -0.094044 27.513213 1.548170 -0.082048 4.837509 0.262366 -0.100215 7.641656 0.424086 -0.133505 22.379352 1.249784 -0.891010 18.559310 -6.622404 0.545084 -5.917382 -6.948340 0.187629 1.877409 1.959404 3.845235 -11.672434 -9.417535 -75.958332 -40.510291 136.325651 -10.222032 0.234047 -2.710444 -6.424193 0.230569 3.127202 5.075823 -13.469465 2.811959 74.535432 -45.503046 -112.125044 11.887941 -25.037060 2.143927 -20.481703 -17.352820 1.118132 -6.076138 67.387484 8.332161 13.160476 -8.402736 -4.754985 0.000292 -0.017215 0.000129 14.716329 -7.987444 0.794176 -176.705301 84.689132 178.357780 -11.963650 -14.194835 4.597508 0.000826 -0.000269 0.000366
-18.384339 126.882736 19.423163 -173.545403 -46.450766 -4.926852 -0.098674 27.508500 1.551812 -0.079288 4.835623 0.266037 -0.085094 7.634069 0.435256 -0.149313 22.382339 1.249180 -0.885740 18.518474 -6.610261 0.540539 -5.960448 -6.933856 0.180541 1.863128 1.958001 3.835732 -11.669243 -9.413577 -76.081488 -40.643503 136.384272 -10.075385 0.354821 -2.596667 -6.438164 0.150104 3.106014 4.942050 -13.432474 2.883116 74.858245 -45.898322 -112.480794 11.628569 -24.720666 1.883168 -20.512688 -17.332002 1.098532 -6.189560 67.412673 8.200730 13.298606 -8.591020 -4.637849 0.000522 -0.016886 0.000231 14.712948 -7.987311 0.793084 -176.692027 84.691063 178.371931 -11.964800 -14.198731 4.589517 0.001653 -0.000780 0.000733
-18.384300 126.883024 19.422988 -173.536861 -46.447681 -4.936462 -0.092650 27.504569 1.565290 -0.069540 4.832130 0.272264 -0.082856 7.629247 0.439358 -0.149911 22.379355 1.255395 -0.887615 18.480085 -6.595376 0.535706 -6.006090 -6.918148 0.164819 1.851431 1.954900 3.824163 -11.680753 -9.393638 -76.190705 -40.786791 136.420126 -9.924747 0.468112 -2.488345 -6.460313 0.092824 3.087535 4.805718 -13.415760 2.951009 75.159121 -46.261609 -112.830924 11.360040 -24.410819 1.662545 -20.543896 -17.316556 1.087112 -6.236895 67.433281 8.141056 13.391568 -8.729057 -4.555439 0.001606 -0.015663 0.000711 14.720377 -7.984538 0.803114 -176.547131 84.693678 178.520690 -11.964833 -14.202824 4.595721 0.001332 0.000670 0.000590
-18.383131 126.883298 19.422858 -173.538501 -46.444814 -4.946037 -0.070219 27.498536 1.591980 -0.068989 4.830542 0.274485 -0.083834 7.625258 0.439064 -0.116186 22.366747 1.285578 -0.915425 18.446799 -6.591693 0.532004 -6.054498 -6.901042 0.126485 1.844291 1.940844 3.812397 -11.669414 -9.381294 -76.326567 -40.929011 136.486846 -9.773457 0.575664 -2.387272 -6.503633 0.054112 3.063702 4.666212 -13.413782 3.013138 75.432677 -46.591060 -113.171837 11.090787 -24.114679 1.471976 -20.555659 -17.309298 1.089737 -6.235637 67.447206 8.135897 13.436118 -8.823243 -4.490868 0.003805 -0.014814 0.001685 14.729955 -7.984747 0.817064 -176.478934 84.696082 178.595340 -11.969022 -14.206078 4.597891 0.001283 0.001236 0.000568
-18.382908 126.884127 19.422117 -173.535161 -46.446891 -4.954326 -0.058692 27.495330 1.606548 -0.067326 4.829431 0.276379 -0.081135 7.621984 0.441258 -0.119622 22.370377 1.288048 -0.915259 18.425235 -6.583869 0.539404 -6.133330 -6.878133 0.122456 1.827594 1.941014 3.805565 -11.660816 -9.369137 -76.470321 -41.075235 136.560046 -9.623410 0.682168 -2.296885 -6.507472 0.003296 3.059918 4.521430 -13.414625 3.069351 75.669106 -46.885484 -113.501185 10.824011 -23.839900 1.293723 -20.599304 -17.292088 1.077619 -6.223331 67.467779 8.140298 13.492745 -8.909042 -4.455643 0.002429 -0.009133 0.001076 14.732674 -7.978524 0.827402 -176.424626 84.698843 178.650345 -11.972864 -14.206528 4.603202 0.000517 0.000827 0.000229
-18.382854 126.884574 19.421553 -173.534730 -46.446052 -4.959395 -0.045398 27.488128 1.620203 -0.065731 4.827776 0.277802 -0.082832 7.622253 0.442200 -0.098777 22.359772 1.299998 -0.911481 18.371238 -6.563459 0.535304 -6.168404 -6.862508 0.094520 1.837127 1.939179 3.808968 -11.666234 -9.357226 -76.621199 -41.225671 136.637362 -9.469973 0.790317 -2.220966 -6.526906 -0.036102 3.057141 4.369720 -13.415470 3.118466 75.871808 -47.148763 -113.819636 10.574312 -23.579367 1.106364 -20.632592 -17.280084 1.059572 -6.107561 67.487408 8.268819 13.497863 -8.982364 -4.443662 0.009337 -0.004615 0.004137 14.737375 -7.974673 0.836679 -176.347390 84.703289 178.726486 -11.973226 -14.204857 4.610270 -0.000166 0.000229 -0.000074
